<svg version="1.1" xmlns="http://www.w3.org/2000/svg" xmlns:xlink="http://www.w3.org/1999/xlink" width="278.67956" height="184.40233" viewBox="0,0,278.67956,184.40233"><defs><linearGradient x1="290.02759" y1="174.90477" x2="189.19735" y2="122.55737" gradientUnits="userSpaceOnUse" id="color-1"><stop offset="0" stop-color="#00b5ff"/><stop offset="1" stop-color="#00e6ff"/></linearGradient><linearGradient x1="294.59821" y1="113.6333" x2="315.04534" y2="114.72237" gradientUnits="userSpaceOnUse" id="color-2"><stop offset="0" stop-color="#00b5ff"/><stop offset="1" stop-color="#00e6ff"/></linearGradient><linearGradient x1="183.43283" y1="197.1671" x2="203.87995" y2="198.25616" gradientUnits="userSpaceOnUse" id="color-3"><stop offset="0" stop-color="#00b5ff"/><stop offset="1" stop-color="#00e6ff"/></linearGradient></defs><g transform="translate(-100.66022,-87.79883)"><g data-paper-data="{&quot;isPaintingLayer&quot;:true}" fill-rule="nonzero" stroke-linejoin="miter" stroke-miterlimit="10" stroke-dasharray="" stroke-dashoffset="0" style="mix-blend-mode: normal"><path d="M201.04144,130.0114c8.39961,-4.36149 10.16066,-5.75933 15.43744,-10.06644c5.27678,-4.30708 6.21967,-5.1163 12.1753,-12.47206c7.00937,-8.65727 12.57789,-19.92951 17.53578,-19.66965c4.45255,0.29193 6.39294,10.71204 10.84183,19.98751c4.31789,9.00241 4.54933,10.06077 9.93455,17.14337c5.38523,7.08259 7.68868,10.46329 15.64372,16.49691c8.19636,6.21667 18.15696,8.99523 17.48737,13.81756c-0.66192,4.1013 -13.73816,8.42505 -23.62401,13.55821c-8.39964,4.36149 -9.32489,4.49381 -14.97488,8.57974c-5.64996,4.08592 -6.04811,4.6174 -12.0037,11.97317c-7.00937,8.6573 -13.78863,19.79933 -17.93938,19.62629c-4.40918,-0.69549 -5.98938,-10.66861 -10.43825,-19.94411c-4.31789,-9.00237 -4.82837,-10.43364 -9.97798,-16.73982c-5.14962,-6.30615 -7.51571,-8.39087 -15.47075,-14.42449c-8.19636,-6.21667 -18.15697,-8.99523 -17.48738,-13.81756c0.66189,-4.10129 12.97437,-8.91543 22.86023,-14.04861z" data-paper-data="{&quot;index&quot;:null}" fill="url(#color-1)" stroke="#000000" stroke-width="0" stroke-linecap="round"/><path d="M233.56506,141.57919c-3.73782,-0.19909 -3.53873,-3.93691 -3.53873,-3.93691l0.20706,-3.78c-0.19523,-3.39476 -0.13963,-6.80533 0.03781,-10.20107c0,0 0.19909,-3.73782 3.93691,-3.53874c3.73782,0.19909 3.53874,3.93691 3.53874,3.93691c-0.17704,3.25756 -0.21454,6.53008 -0.02723,9.78706l-0.21765,4.19402c0,0 -0.19909,3.73782 -3.93691,3.53874z" fill="#005d82" stroke="none" stroke-width="9" stroke-linecap="butt"/><path d="M250.25409,142.15263c-3.73782,-0.19909 -3.53874,-3.93691 -3.53874,-3.93691l0.20708,-3.77999c-0.19523,-3.39478 -0.13963,-6.80533 0.0378,-10.20108c0,0 0.19909,-3.73782 3.93691,-3.53874c3.73782,0.19909 3.53874,3.93691 3.53874,3.93691c-0.17706,3.25756 -0.21454,6.53008 -0.02723,9.78706l-0.21764,4.19402c0,0 -0.19909,3.73782 -3.93691,3.53874z" fill="#005d82" stroke="none" stroke-width="9" stroke-linecap="butt"/><path d="M249.87029,151.34467c0,0 -5.29206,2.58812 -9.63052,2.38307c-4.21881,-0.1994 -9.07493,-3.00424 -9.07493,-3.00424" fill="none" stroke="#005d82" stroke-width="5" stroke-linecap="round"/><path d="M315.04534,114.72237c-0.29611,5.55946 -5.1134,9.82249 -10.75971,9.52175c-5.64633,-0.30074 -9.98351,-5.05136 -9.6874,-10.61081c0.29611,-5.55944 5.1134,-9.82247 10.75971,-9.52174c5.64632,0.30074 9.98351,5.05137 9.6874,10.6108z" fill="url(#color-2)" stroke="none" stroke-width="9" stroke-linecap="butt"/><path d="M203.87995,198.25616c-0.29611,5.55946 -5.1134,9.82247 -10.75972,9.52174c-5.64632,-0.30074 -9.98351,-5.05137 -9.6874,-10.6108c0.29611,-5.55944 5.1134,-9.82248 10.75971,-9.52175c5.64632,0.30074 9.98352,5.05137 9.68741,10.61082z" fill="url(#color-3)" stroke="none" stroke-width="9" stroke-linecap="butt"/><g fill="#ffffff" stroke="none" stroke-width="1" stroke-linecap="butt"><path d="M301.92662,247.68259c-1.4591,0 -2.78687,-0.40126 -3.98333,-1.20376c-1.19646,-0.8025 -2.15946,-1.89683 -2.88901,-3.28297c-0.71496,-1.40073 -1.07244,-2.97655 -1.07244,-4.72747c0,-1.76551 0.36478,-3.33404 1.09432,-4.70558c0.72955,-1.38613 1.71444,-2.46588 2.95467,-3.23919c1.25482,-0.78791 2.65556,-1.18187 4.2022,-1.18187c0.91923,0 1.75821,0.13862 2.51694,0.41585c0.75875,0.26263 1.42264,0.63471 1.99169,1.11622c0.53546,0.45308 0.98049,0.97077 1.33508,1.55303v-2.71302h3.50183v17.64047h-3.50183v-2.69977c-0.00725,0.00989 -0.01455,0.01976 -0.02189,0.02962c-0.40855,0.56904 -0.93383,1.07973 -1.57583,1.53206c-0.642,0.43773 -1.34968,0.79521 -2.12301,1.07244c-0.77332,0.26263 -1.58312,0.39396 -2.42939,0.39396zM302.82396,244.48717c1.06514,0 1.99897,-0.25534 2.80149,-0.76602c0.8025,-0.51068 1.42991,-1.21834 1.88224,-2.12298c0.4669,-0.91923 0.70037,-1.96248 0.70037,-3.12975c0,-1.13809 -0.23346,-2.15217 -0.70037,-3.04221c-0.45232,-0.90464 -1.07973,-1.6123 -1.88224,-2.12298c-0.80252,-0.51068 -1.73635,-0.76602 -2.80149,-0.76602c-1.02137,0 -1.93331,0.25534 -2.7358,0.76603c-0.78791,0.51068 -1.41533,1.21834 -1.88224,2.123c-0.45232,0.89005 -0.67848,1.90413 -0.67848,3.04222c0,1.16727 0.22617,2.21054 0.67849,3.12977c0.4669,0.90464 1.09432,1.6123 1.88223,2.12299c0.8025,0.51068 1.71444,0.76603 2.73581,0.76603z"/><path d="M141.90746,247.68259c-1.4591,0 -2.78687,-0.40126 -3.98334,-1.20376c-1.19646,-0.8025 -2.15946,-1.89683 -2.88901,-3.28297c-0.71496,-1.40073 -1.07243,-2.97655 -1.07243,-4.72747c0,-1.76551 0.36478,-3.33404 1.09432,-4.70558c0.72955,-1.38613 1.71444,-2.46588 2.95467,-3.23919c1.25482,-0.78791 2.65555,-1.18187 4.2022,-1.18187c0.91923,0 1.75821,0.13862 2.51694,0.41585c0.75874,0.26263 1.42263,0.63471 1.99168,1.11622c0.53546,0.45308 0.98049,0.97077 1.33508,1.55303v-2.71302h3.50183v17.64047h-3.50183v-2.69977c-0.00726,0.00989 -0.01456,0.01976 -0.02188,0.02962c-0.40855,0.56904 -0.93383,1.07973 -1.57583,1.53206c-0.642,0.43773 -1.34966,0.79521 -2.12297,1.07244c-0.77332,0.26263 -1.58312,0.39396 -2.42939,0.39396zM142.80481,244.48717c1.06514,0 1.99896,-0.25534 2.80146,-0.76602c0.8025,-0.51068 1.4299,-1.21834 1.88223,-2.12298c0.4669,-0.91923 0.70037,-1.96248 0.70037,-3.12975c0,-1.13809 -0.23346,-2.15217 -0.70037,-3.04221c-0.45233,-0.90464 -1.07973,-1.6123 -1.88223,-2.12298c-0.8025,-0.51068 -1.73632,-0.76602 -2.80146,-0.76602c-1.02137,0 -1.93331,0.25534 -2.73581,0.76603c-0.78791,0.51068 -1.41533,1.21834 -1.88223,2.123c-0.45233,0.89005 -0.67847,1.90413 -0.67847,3.04222c0,1.16727 0.22616,2.21054 0.67848,3.12977c0.4669,0.90464 1.09432,1.6123 1.88224,2.12299c0.8025,0.51068 1.71444,0.76603 2.73581,0.76603z"/><path d="M280.7718,247.68259c-1.69254,0 -3.28297,-0.30641 -4.77125,-0.91923c-1.47368,-0.61282 -2.77229,-1.4664 -3.89579,-2.56072c-1.1235,-1.10892 -1.99166,-2.39291 -2.60448,-3.85201c-0.61282,-1.47368 -0.91923,-3.06411 -0.91923,-4.77125c0,-1.67797 0.30641,-3.23919 0.91923,-4.6837c0.61282,-1.4591 1.47368,-2.72852 2.5826,-3.80824c1.10892,-1.09432 2.40021,-1.9406 3.8739,-2.53883c1.48828,-0.61282 3.08599,-0.91923 4.79314,-0.91923c1.18187,0 2.33456,0.1678 3.45806,0.5034c1.1381,0.33559 2.16677,0.80981 3.086,1.42263c0.91923,0.59823 1.67066,1.28401 2.25431,2.05732l-2.34185,2.45128c-0.67119,-0.642 -1.36425,-1.17457 -2.07921,-1.5977c-0.70037,-0.42314 -1.42261,-0.74414 -2.16675,-0.96301c-0.74414,-0.23346 -1.48098,-0.35018 -2.21052,-0.35018c-1.21105,0 -2.32726,0.21157 -3.34862,0.63471c-1.02137,0.42314 -1.91871,1.02138 -2.69203,1.79469c-0.77332,0.75874 -1.37155,1.64878 -1.79469,2.67014c-0.42314,1.00678 -0.6347,2.11569 -0.6347,3.32674c0,1.16727 0.21886,2.27619 0.65659,3.32674c0.45232,1.03596 1.07245,1.9479 1.86036,2.73581c0.8025,0.78791 1.72173,1.40803 2.75769,1.86035c1.05055,0.43773 2.15947,0.65659 3.32674,0.65659c0.87546,0 1.69984,-0.12402 2.47317,-0.37206c0.78791,-0.26263 1.48098,-0.62742 2.07922,-1.09432c0.61282,-0.4815 1.08703,-1.02866 1.42263,-1.64148c0.33559,-0.61282 0.50339,-1.26941 0.50339,-1.96978v-0.19697h-6.67536v-3.58938h10.41795c0.04377,0.23346 0.07295,0.47421 0.08755,0.72226c0.02918,0.23346 0.05107,0.45962 0.06566,0.67848c0.01459,0.20427 0.02189,0.40855 0.02189,0.61282c0,1.54665 -0.26994,2.95468 -0.80979,4.22409c-0.53987,1.25482 -1.29129,2.34185 -2.2543,3.26108c-0.94841,0.91923 -2.05732,1.6342 -3.32674,2.14488c-1.25482,0.49609 -2.62637,0.74414 -4.11465,0.74414z"/><path d="M316.35606,247.35428v-17.64047h3.47995v2.79286c0.06876,-0.10741 0.14171,-0.21397 0.21887,-0.3197c0.39396,-0.53987 0.87546,-1.01408 1.4445,-1.42262c0.56905,-0.40855 1.18187,-0.73684 1.83846,-0.98488c0.67119,-0.24804 1.35696,-0.37207 2.05732,-0.37207c1.00677,0 1.88953,0.1678 2.64826,0.5034c0.75874,0.33559 1.38613,0.83898 1.88223,1.51017c0.34929,0.47257 0.62986,1.02831 0.84172,1.66722c0.2405,-0.45546 0.55817,-0.88717 0.95298,-1.29514c0.43773,-0.4669 0.93383,-0.88276 1.48828,-1.24752c0.56905,-0.36478 1.16727,-0.642 1.79469,-0.83168c0.62741,-0.20427 1.24023,-0.30641 1.83846,-0.30641c1.32778,0 2.42211,0.26993 3.28297,0.8098c0.86086,0.53987 1.51017,1.35697 1.9479,2.45129c0.43773,1.09432 0.65659,2.45858 0.65659,4.09277v10.59303h-3.47994v-10.39605c0,-1.00678 -0.13132,-1.82386 -0.39395,-2.45128c-0.26264,-0.642 -0.6493,-1.11621 -1.15998,-1.42262c-0.51068,-0.32101 -1.17457,-0.4815 -1.99166,-0.4815c-0.62741,0 -1.21834,0.10944 -1.77279,0.32831c-0.53987,0.20427 -1.01407,0.49609 -1.42261,0.87545c-0.39396,0.37936 -0.70766,0.82439 -0.94111,1.33508c-0.21886,0.49609 -0.32829,1.05055 -0.32829,1.66337v10.54926h-3.50183v-10.46172c0,-0.91923 -0.13861,-1.69254 -0.41584,-2.31996c-0.26263,-0.642 -0.6493,-1.1308 -1.15998,-1.46639c-0.51068,-0.33559 -1.13809,-0.50338 -1.88223,-0.50338c-0.62742,0 -1.21105,0.10943 -1.75092,0.3283c-0.53987,0.20427 -1.01407,0.4961 -1.42261,0.87546c-0.39396,0.36478 -0.70767,0.8025 -0.94111,1.31319c-0.21887,0.49609 -0.32829,1.03595 -0.32829,1.6196v10.61493z"/><path d="M248.5074,247.68259c-1.82387,0 -3.43617,-0.38667 -4.8369,-1.15998c-1.40073,-0.77331 -2.50235,-1.83116 -3.30485,-3.17352c-0.78791,-1.34237 -1.18187,-2.88902 -1.18187,-4.63993c0,-1.38613 0.22616,-2.64825 0.67849,-3.78635c0.45233,-1.15269 1.07244,-2.14487 1.86035,-2.97655c0.8025,-0.84628 1.75821,-1.49558 2.86713,-1.94789c1.10892,-0.4669 2.31266,-0.70037 3.61127,-0.70037c1.13809,0 2.20324,0.21886 3.19542,0.65659c0.99218,0.43773 1.84576,1.04325 2.56072,1.81658c0.72955,0.75874 1.29131,1.65607 1.68527,2.69204c0.39396,1.03596 0.58364,2.17405 0.56905,3.41429l-0.04377,1.4664h-13.50236c0.09402,0.87669 0.33425,1.65731 0.72068,2.34186c0.52527,0.90464 1.25481,1.60501 2.18864,2.1011c0.94841,0.49609 2.03545,0.74414 3.26109,0.74414c0.87546,0 1.68526,-0.14591 2.4294,-0.43773c0.75874,-0.29182 1.57582,-0.81709 2.45128,-1.57583l1.75091,2.45128c-0.53987,0.53987 -1.19646,1.01408 -1.96978,1.42263c-0.77331,0.39396 -1.59042,0.70766 -2.45128,0.94112c-0.86086,0.23346 -1.70714,0.35019 -2.53882,0.35019zM252.66583,236.36729c-0.05837,-0.74414 -0.30641,-1.40803 -0.74414,-1.99166c-0.42314,-0.58364 -0.963,-1.04326 -1.6196,-1.37884c-0.642,-0.33559 -1.34237,-0.50338 -2.1011,-0.50338c-1.21105,0 -2.23242,0.23346 -3.0641,0.70036c-0.83168,0.45233 -1.4591,1.1235 -1.88224,2.01355c-0.19943,0.41261 -0.35186,0.87224 -0.45729,1.37886h9.86846z"/><path d="M355.61267,247.68259c-1.82386,0 -3.43617,-0.38667 -4.8369,-1.15998c-1.40073,-0.77331 -2.50235,-1.83116 -3.30485,-3.17352c-0.78791,-1.34237 -1.18187,-2.88902 -1.18187,-4.63993c0,-1.38613 0.22617,-2.64825 0.67849,-3.78635c0.45232,-1.15269 1.07245,-2.14487 1.86036,-2.97655c0.8025,-0.84628 1.75821,-1.49558 2.86713,-1.94789c1.10892,-0.4669 2.31267,-0.70037 3.61127,-0.70037c1.1381,0 2.20324,0.21886 3.19542,0.65659c0.99218,0.43773 1.84576,1.04325 2.56072,1.81658c0.72954,0.75874 1.2913,1.65607 1.68526,2.69204c0.39396,1.03596 0.58364,2.17405 0.56905,3.41429l-0.04377,1.4664h-13.50235c0.09402,0.87669 0.33424,1.65731 0.72068,2.34186c0.52527,0.90464 1.25482,1.60501 2.18864,2.1011c0.94841,0.49609 2.03544,0.74414 3.26108,0.74414c0.87546,0 1.68526,-0.14591 2.4294,-0.43773c0.75874,-0.29182 1.57583,-0.81709 2.45129,-1.57583l1.75091,2.45128c-0.53987,0.53987 -1.19646,1.01408 -1.96978,1.42263c-0.77332,0.39396 -1.59042,0.70766 -2.45128,0.94112c-0.86086,0.23346 -1.70714,0.35019 -2.53883,0.35019zM359.77109,236.36729c-0.05837,-0.74414 -0.30641,-1.40803 -0.74414,-1.99166c-0.42314,-0.58364 -0.963,-1.04326 -1.6196,-1.37884c-0.642,-0.33559 -1.34236,-0.50338 -2.10109,-0.50338c-1.21105,0 -2.23242,0.23346 -3.06411,0.70036c-0.83168,0.45233 -1.4591,1.1235 -1.88223,2.01355c-0.19943,0.41261 -0.35186,0.87224 -0.4573,1.37886h9.86847z"/><path d="M178.07023,247.68259c-1.26942,0 -2.45128,-0.1678 -3.5456,-0.50339c-1.07972,-0.33559 -2.06462,-0.83898 -2.95466,-1.51015c-0.89005,-0.68577 -1.67797,-1.53935 -2.36374,-2.56071l2.47316,-2.84524c1.10892,1.56123 2.16676,2.64827 3.17354,3.26109c1.00678,0.59823 2.20324,0.89735 3.58938,0.89735c0.86086,0 1.6342,-0.13132 2.31996,-0.39396c0.70037,-0.26263 1.24753,-0.62742 1.64149,-1.09432c0.40855,-0.4815 0.61282,-1.02137 0.61282,-1.6196c0,-0.40855 -0.06565,-0.78791 -0.19697,-1.13809c-0.13132,-0.36478 -0.34288,-0.69307 -0.6347,-0.98488c-0.27723,-0.29182 -0.6347,-0.56175 -1.07243,-0.80979c-0.43773,-0.24804 -0.94841,-0.46691 -1.53205,-0.65659c-0.58364,-0.18968 -1.25482,-0.35019 -2.01355,-0.4815c-1.21105,-0.24804 -2.26889,-0.57634 -3.17353,-0.98488c-0.89005,-0.40855 -1.64148,-0.91193 -2.2543,-1.51016c-0.59823,-0.59823 -1.04325,-1.28401 -1.33506,-2.05732c-0.27723,-0.77331 -0.41584,-1.64877 -0.41584,-2.62637c0,-0.93383 0.20427,-1.80199 0.61282,-2.60448c0.40855,-0.81709 0.97759,-1.51746 1.70714,-2.1011c0.72955,-0.59823 1.58312,-1.05785 2.56072,-1.37884c0.99218,-0.33559 2.06463,-0.50338 3.21732,-0.50338c1.21105,0 2.31996,0.1605 3.32674,0.4815c1.00678,0.30641 1.89683,0.77331 2.67014,1.40073c0.78791,0.61282 1.4445,1.36426 1.96978,2.25431l-2.56071,2.53883c-0.45233,-0.74414 -0.9557,-1.36426 -1.51015,-1.86034c-0.55445,-0.51068 -1.17457,-0.89734 -1.86034,-1.15998c-0.67119,-0.26263 -1.38614,-0.39395 -2.14487,-0.39395c-0.87546,0 -1.64147,0.13861 -2.29807,0.41585c-0.642,0.26263 -1.15269,0.63471 -1.53205,1.11622c-0.36478,0.4815 -0.54716,1.05055 -0.54716,1.70714c0,0.4669 0.08755,0.89735 0.26264,1.2913c0.18968,0.39396 0.4669,0.74414 0.83168,1.05055c0.37936,0.29182 0.88276,0.56175 1.51018,0.8098c0.62742,0.23346 1.37885,0.43773 2.25431,0.61282c1.22564,0.26263 2.31996,0.60553 3.28296,1.02867c0.96301,0.40855 1.78009,0.89736 2.45128,1.4664c0.67119,0.55445 1.18186,1.18187 1.53205,1.88223c0.35019,0.68577 0.52527,1.43721 0.52527,2.25431c0,1.48828 -0.35018,2.78687 -1.05055,3.89579c-0.68577,1.09432 -1.67066,1.9406 -2.95466,2.53883c-1.26942,0.58364 -2.79417,0.87546 -4.57426,0.87546z"/><path d="M109.52422,247.68259c-1.26941,0 -2.45128,-0.1678 -3.5456,-0.50339c-1.07972,-0.33559 -2.06462,-0.83898 -2.95466,-1.51015c-0.89006,-0.68577 -1.67797,-1.53935 -2.36374,-2.56071l2.47317,-2.84524c1.10892,1.56123 2.16676,2.64827 3.17354,3.26109c1.00678,0.59823 2.20324,0.89735 3.58938,0.89735c0.86086,0 1.63419,-0.13132 2.31996,-0.39396c0.70037,-0.26263 1.24753,-0.62742 1.64149,-1.09432c0.40855,-0.4815 0.61283,-1.02137 0.61283,-1.6196c0,-0.40855 -0.06565,-0.78791 -0.19697,-1.13809c-0.13132,-0.36478 -0.34289,-0.69307 -0.6347,-0.98488c-0.27724,-0.29182 -0.63469,-0.56175 -1.07242,-0.80979c-0.43773,-0.24804 -0.9484,-0.46691 -1.53205,-0.65659c-0.58365,-0.18968 -1.25482,-0.35019 -2.01355,-0.4815c-1.21104,-0.24804 -2.26889,-0.57634 -3.17353,-0.98488c-0.89006,-0.40855 -1.64147,-0.91193 -2.25429,-1.51016c-0.59822,-0.59823 -1.04325,-1.28401 -1.33507,-2.05732c-0.27723,-0.77331 -0.41583,-1.64877 -0.41583,-2.62637c0,-0.93383 0.20427,-1.80199 0.61282,-2.60448c0.40855,-0.81709 0.9776,-1.51746 1.70714,-2.1011c0.72955,-0.59823 1.58312,-1.05785 2.56072,-1.37884c0.99218,-0.33559 2.06462,-0.50338 3.21731,-0.50338c1.21104,0 2.31996,0.1605 3.32673,0.4815c1.00678,0.30641 1.89683,0.77331 2.67014,1.40073c0.78791,0.61282 1.44451,1.36426 1.96978,2.25431l-2.5607,2.53883c-0.45233,-0.74414 -0.9557,-1.36426 -1.51015,-1.86034c-0.55445,-0.51068 -1.17457,-0.89734 -1.86034,-1.15998c-0.67119,-0.26263 -1.38614,-0.39395 -2.14488,-0.39395c-0.87546,0 -1.64147,0.13861 -2.29806,0.41585c-0.642,0.26263 -1.15269,0.63471 -1.53205,1.11622c-0.36478,0.4815 -0.54715,1.05055 -0.54715,1.70714c0,0.4669 0.08755,0.89735 0.26264,1.2913c0.18968,0.39396 0.4669,0.74414 0.83168,1.05055c0.37936,0.29182 0.88276,0.56175 1.51017,0.8098c0.62741,0.23346 1.37885,0.43773 2.25431,0.61282c1.22564,0.26263 2.31996,0.60553 3.28297,1.02867c0.963,0.40855 1.7801,0.89736 2.45128,1.4664c0.67119,0.55445 1.18187,1.18187 1.53205,1.88223c0.35018,0.68577 0.52527,1.43721 0.52527,2.25431c0,1.48828 -0.35018,2.78687 -1.05055,3.89579c-0.68577,1.09432 -1.67067,1.9406 -2.95466,2.53883c-1.26941,0.58364 -2.79417,0.87546 -4.57426,0.87546z"/><path d="M190.92766,247.35428v-24.88487h3.45806v9.96612c0.19747,-0.29869 0.43094,-0.58581 0.70037,-0.86136c0.6566,-0.6566 1.4299,-1.18917 2.31996,-1.59771c0.89005,-0.42314 1.80929,-0.6347 2.7577,-0.6347c1.34237,0 2.45857,0.26264 3.34861,0.78791c0.90464,0.52527 1.57583,1.32778 2.01355,2.40751c0.45233,1.06515 0.67848,2.41481 0.67848,4.049v10.76813h-3.45806v-10.52737c0,-1.00678 -0.13862,-1.83846 -0.41584,-2.49506c-0.26263,-0.67119 -0.67119,-1.15269 -1.22564,-1.4445c-0.55445,-0.30641 -1.24752,-0.43773 -2.07921,-0.39396c-0.67119,0 -1.2913,0.10943 -1.86034,0.3283c-0.55445,0.20427 -1.04325,0.4961 -1.46639,0.87546c-0.40855,0.37936 -0.72954,0.82439 -0.963,1.33508c-0.23346,0.51068 -0.35018,1.05785 -0.35018,1.64149v10.68058c-0.29182,0 -2.31267,0 -2.60448,0c-0.27723,0 -0.56175,0 -0.85357,0z"/><path d="M220.2757,247.35428v-17.64047h3.45806v2.72171c0.19747,-0.29869 0.43094,-0.58582 0.70037,-0.86137c0.6566,-0.6566 1.4299,-1.18916 2.31996,-1.5977c0.89005,-0.42314 1.80929,-0.6347 2.7577,-0.6347c1.34237,0 2.45857,0.26263 3.34863,0.78791c0.90464,0.52527 1.57583,1.32779 2.01356,2.40751c0.45233,1.06515 0.67848,2.4148 0.67848,4.04899v10.76813h-3.45806v-10.52737c0,-1.00678 -0.13862,-1.83846 -0.41584,-2.49505c-0.26263,-0.67119 -0.67119,-1.15269 -1.22564,-1.44451c-0.55445,-0.30641 -1.24752,-0.43773 -2.07921,-0.39395c-0.67119,0 -1.29129,0.10943 -1.86034,0.3283c-0.55445,0.20427 -1.04325,0.4961 -1.46639,0.87546c-0.40855,0.37936 -0.72955,0.82439 -0.96301,1.33508c-0.23346,0.51068 -0.35018,1.05785 -0.35018,1.64149v10.68058c-0.29182,0 -2.31266,0 -2.60448,0c-0.27723,0 -0.56175,0 -0.85357,0z"/><path d="M372.94878,247.68259c-1.47368,0 -2.80876,-0.25535 -4.00522,-0.76603c-1.18187,-0.51068 -2.16675,-1.26941 -2.95466,-2.27619l2.36374,-2.03543c0.67119,0.78791 1.40073,1.35695 2.18864,1.70714c0.8025,0.35019 1.70714,0.52527 2.71392,0.52527c0.40855,0 0.78062,-0.05107 1.11622,-0.1532c0.35019,-0.10214 0.65659,-0.25533 0.91923,-0.4596c0.26263,-0.20427 0.45962,-0.44503 0.59094,-0.72225c0.13132,-0.27723 0.19699,-0.58364 0.19699,-0.91923c0,-0.58364 -0.21156,-1.05785 -0.6347,-1.42262c-0.21887,-0.14592 -0.56905,-0.3137 -1.05055,-0.50338c-0.4815,-0.18968 -1.10891,-0.38665 -1.88223,-0.59092c-1.29859,-0.33559 -2.36374,-0.71496 -3.19542,-1.13809c-0.81709,-0.43773 -1.45181,-0.92653 -1.90412,-1.46639c-0.33558,-0.42314 -0.58364,-0.88276 -0.74414,-1.37884c-0.16049,-0.51068 -0.24074,-1.06515 -0.24074,-1.66337c0,-0.74414 0.1605,-1.42261 0.4815,-2.03543c0.33559,-0.62742 0.78791,-1.16727 1.35696,-1.6196c0.56905,-0.4669 1.24023,-0.81709 2.01355,-1.05055c0.77332,-0.24804 1.59772,-0.37207 2.47318,-0.37207c0.83168,0 1.65607,0.10944 2.47317,0.32831c0.81709,0.21886 1.56853,0.54717 2.25431,0.9849c0.70036,0.42314 1.29131,0.92653 1.77281,1.51017l-1.99166,2.18864c-0.42314,-0.43773 -0.89005,-0.81709 -1.40073,-1.1381c-0.4961,-0.32101 -1.00677,-0.56904 -1.53205,-0.74413c-0.51068,-0.18968 -0.97759,-0.28452 -1.40073,-0.28452c-0.4669,0 -0.89734,0.05107 -1.29129,0.15321c-0.37936,0.08755 -0.70037,0.21886 -0.963,0.39396c-0.24804,0.17509 -0.43773,0.40125 -0.56905,0.67848c-0.13132,0.26263 -0.19697,0.56175 -0.19697,0.89735c0.01459,0.29182 0.08025,0.56905 0.19699,0.83168c0.13132,0.24804 0.30641,0.46691 0.52527,0.6566c0.24804,0.17509 0.62012,0.36478 1.11622,0.56905c0.4961,0.20427 1.1235,0.39395 1.88224,0.56904c1.1235,0.29182 2.05003,0.61282 2.77958,0.96301c0.72955,0.33559 1.30589,0.72954 1.72903,1.18186c0.45232,0.42314 0.76603,0.91924 0.94113,1.48828c0.17509,0.55445 0.26264,1.18187 0.26264,1.88224c0,1.00678 -0.28452,1.91141 -0.85357,2.71391c-0.56905,0.78791 -1.33506,1.40803 -2.29807,1.86035c-0.963,0.43773 -2.04273,0.6566 -3.23919,0.6566z"/><path d="M124.54841,247.35428v-14.29183h-3.65504v-3.34863h3.65504v-4.5086h3.47994v4.5086h4.09276v3.34863h-4.09276v14.29185z"/><path d="M156.40253,247.35428v-17.64047h3.47995v3.31698c0.23674,-0.5146 0.54315,-0.99286 0.91923,-1.43475c0.59823,-0.70037 1.28401,-1.24752 2.05732,-1.64147c0.77331,-0.40855 1.57583,-0.61282 2.40751,-0.61282c0.37936,0 0.74414,0.03646 1.09432,0.10943c0.35018,0.05837 0.62742,0.13132 0.83168,0.21886l-0.91923,3.76447c-0.26263,-0.11673 -0.56176,-0.21157 -0.89735,-0.28452c-0.321,-0.07295 -0.6347,-0.10943 -0.94111,-0.10943c-0.61282,0 -1.19646,0.11673 -1.75091,0.35019c-0.53987,0.23346 -1.02137,0.56175 -1.4445,0.98489c-0.40855,0.40855 -0.73684,0.89005 -0.98488,1.4445c-0.24804,0.53987 -0.37206,1.13809 -0.37206,1.79469v9.73947z"/><path d="M211.49909,247.35428v-17.64047h3.45806v17.64047z"/><path d="M213.18436,225.79615c-0.74414,0 -1.32048,-0.18969 -1.72902,-0.56905c-0.39396,-0.37936 -0.59094,-0.91194 -0.59094,-1.59771c0,-0.6566 0.20427,-1.18187 0.61282,-1.57582c0.40855,-0.40855 0.9776,-0.61282 1.70714,-0.61282c0.72955,0 1.29131,0.18968 1.68526,0.56904c0.40855,0.37936 0.61282,0.91923 0.61282,1.6196c0,0.642 -0.20427,1.16728 -0.61282,1.57583c-0.40855,0.39396 -0.9703,0.59094 -1.68525,0.59094z"/></g><path d="M119.81937,269.04761c-0.54042,0 -1.04459,-0.0692 -1.51252,-0.2076c-0.46133,-0.14499 -0.88313,-0.36248 -1.26538,-0.65246c-0.37566,-0.28998 -0.71177,-0.65246 -1.00835,-1.08743l1.06766,-1.21595c0.46793,0.67223 0.91608,1.13686 1.34446,1.39389c0.42838,0.25703 0.93915,0.38554 1.53229,0.38554c0.36248,0 0.692,-0.05602 0.98858,-0.16806c0.29657,-0.11863 0.53053,-0.2768 0.70189,-0.47452c0.17135,-0.2043 0.25703,-0.43497 0.25703,-0.692c0,-0.17135 -0.02966,-0.33282 -0.08897,-0.4844c-0.05273,-0.15158 -0.1384,-0.28998 -0.25703,-0.4152c-0.11863,-0.12522 -0.2735,-0.24055 -0.46463,-0.346c-0.18453,-0.10545 -0.40202,-0.19772 -0.65246,-0.2768c-0.24385,-0.08568 -0.52724,-0.15488 -0.85017,-0.2076c-0.52065,-0.10545 -0.9721,-0.24385 -1.35435,-0.4152c-0.38225,-0.17794 -0.70189,-0.39543 -0.95892,-0.65246c-0.25703,-0.25703 -0.44816,-0.55031 -0.57337,-0.87983c-0.12522,-0.32953 -0.18783,-0.69859 -0.18783,-1.1072c0,-0.40202 0.08897,-0.77439 0.26692,-1.11709c0.17794,-0.3493 0.42179,-0.64916 0.73155,-0.8996c0.30975,-0.25044 0.67553,-0.44486 1.09732,-0.58326c0.42179,-0.1384 0.87654,-0.2076 1.36423,-0.2076c0.51406,0 0.98528,0.0659 1.41366,0.19772c0.42838,0.13181 0.81063,0.32953 1.14675,0.59315c0.33612,0.26362 0.61292,0.58656 0.8304,0.9688l-1.08743,1.07755c-0.19113,-0.31634 -0.40532,-0.57996 -0.64257,-0.79086c-0.23726,-0.21749 -0.50088,-0.38225 -0.79086,-0.49429c-0.28339,-0.11204 -0.58985,-0.16806 -0.91938,-0.16806c-0.36907,0 -0.692,0.05931 -0.9688,0.17794c-0.2768,0.11204 -0.49429,0.27021 -0.65246,0.47452c-0.15817,0.2043 -0.23726,0.44486 -0.23726,0.72166c0,0.2043 0.03625,0.39213 0.10874,0.56349c0.07909,0.16476 0.19772,0.31305 0.35589,0.44486c0.15817,0.12522 0.36907,0.23726 0.63269,0.33612c0.27021,0.09886 0.59315,0.18783 0.9688,0.26692c0.52065,0.11204 0.98528,0.25703 1.39389,0.43497c0.4152,0.17794 0.7645,0.38554 1.04789,0.6228c0.28998,0.23726 0.50747,0.50417 0.65246,0.80075c0.15158,0.29657 0.22737,0.61621 0.22737,0.95892c0,0.64587 -0.14829,1.20277 -0.44486,1.67069c-0.29657,0.46793 -0.71836,0.82711 -1.26538,1.07755c-0.54042,0.25044 -1.18959,0.37566 -1.94749,0.37566zM125.29408,268.90921v-10.60742h1.48286v4.62653l-0.25703,0.17794c0.09227,-0.33612 0.2768,-0.64587 0.5536,-0.92926c0.2768,-0.28339 0.60633,-0.51076 0.98858,-0.68212c0.38225,-0.17794 0.77439,-0.26692 1.1764,-0.26692c0.57337,0 1.05119,0.11204 1.43343,0.33612c0.38225,0.22408 0.66894,0.56678 0.86006,1.02812c0.19113,0.45474 0.28669,1.03141 0.28669,1.73001v4.58699h-1.47298v-4.48813c0,-0.42838 -0.05931,-0.78427 -0.17794,-1.06766c-0.11204,-0.28339 -0.28998,-0.4877 -0.53383,-0.61292c-0.23726,-0.13181 -0.53053,-0.18783 -0.87983,-0.16806c-0.28998,0 -0.5536,0.04613 -0.79086,0.1384c-0.23726,0.09227 -0.44486,0.22078 -0.6228,0.38554c-0.17794,0.15817 -0.31634,0.346 -0.4152,0.56349c-0.09886,0.2109 -0.14829,0.44156 -0.14829,0.692v4.55733h-0.73155c-0.12522,0 -0.25044,0 -0.37566,0c-0.12522,0 -0.25044,0 -0.37566,0zM134.07014,268.90921v-7.52306h1.47298v7.52306zM134.7918,259.72534c-0.31634,0 -0.56349,-0.08238 -0.74143,-0.24714c-0.17135,-0.16476 -0.25703,-0.39543 -0.25703,-0.692c0,-0.2768 0.08897,-0.50088 0.26692,-0.67223c0.17794,-0.17135 0.42179,-0.25703 0.73155,-0.25703c0.30975,0 0.55031,0.08238 0.72166,0.24714c0.17794,0.15817 0.26692,0.38554 0.26692,0.68212c0,0.2768 -0.08897,0.50417 -0.26692,0.68212c-0.17794,0.17135 -0.4185,0.25703 -0.72166,0.25703zM137.80794,268.90921v-7.52306h1.48286v1.54218l-0.25703,0.17794c0.09227,-0.33612 0.2768,-0.64587 0.5536,-0.92926c0.2768,-0.28339 0.60633,-0.51076 0.98858,-0.68212c0.38225,-0.17794 0.77439,-0.26692 1.1764,-0.26692c0.57337,0 1.05119,0.11204 1.43343,0.33612c0.38225,0.22408 0.66894,0.56678 0.86006,1.02812c0.19113,0.45474 0.28669,1.03141 0.28669,1.73001v4.58699h-1.47298v-4.48813c0,-0.42838 -0.05931,-0.78427 -0.17794,-1.06766c-0.11204,-0.28339 -0.28998,-0.4877 -0.53383,-0.61292c-0.23726,-0.13181 -0.53053,-0.18783 -0.87983,-0.16806c-0.28998,0 -0.5536,0.04613 -0.79086,0.1384c-0.23726,0.09227 -0.44486,0.22078 -0.6228,0.38554c-0.17794,0.15817 -0.31634,0.346 -0.4152,0.56349c-0.09886,0.2109 -0.14829,0.44156 -0.14829,0.692v4.55733h-0.73155c-0.12522,0 -0.25044,0 -0.37566,0c-0.12522,0 -0.25044,0 -0.37566,0zM146.584,268.90921v-7.52306h1.47298v7.52306zM147.30566,259.72534c-0.31634,0 -0.56349,-0.08238 -0.74143,-0.24714c-0.17135,-0.16476 -0.25703,-0.39543 -0.25703,-0.692c0,-0.2768 0.08897,-0.50088 0.26692,-0.67223c0.17794,-0.17135 0.42179,-0.25703 0.73155,-0.25703c0.30975,0 0.55031,0.08238 0.72166,0.24714c0.17794,0.15817 0.26692,0.38554 0.26692,0.68212c0,0.2768 -0.08897,0.50417 -0.26692,0.68212c-0.17794,0.17135 -0.4185,0.25703 -0.72166,0.25703zM150.3218,268.90921v-7.52306h1.48286v1.54218l-0.25703,0.17794c0.09227,-0.33612 0.2768,-0.64587 0.5536,-0.92926c0.2768,-0.28339 0.60633,-0.51076 0.98858,-0.68212c0.38225,-0.17794 0.77439,-0.26692 1.1764,-0.26692c0.57337,0 1.05119,0.11204 1.43343,0.33612c0.38225,0.22408 0.66894,0.56678 0.86006,1.02812c0.19113,0.45474 0.28669,1.03141 0.28669,1.73001v4.58699h-1.47298v-4.48813c0,-0.42838 -0.05931,-0.78427 -0.17794,-1.06766c-0.11204,-0.28339 -0.28998,-0.4877 -0.53383,-0.61292c-0.23726,-0.13181 -0.53053,-0.18783 -0.87983,-0.16806c-0.28998,0 -0.5536,0.04613 -0.79086,0.1384c-0.23726,0.09227 -0.44486,0.22078 -0.6228,0.38554c-0.17794,0.15817 -0.31634,0.346 -0.4152,0.56349c-0.09886,0.2109 -0.14829,0.44156 -0.14829,0.692v4.55733h-0.73155c-0.12522,0 -0.25044,0 -0.37566,0c-0.12522,0 -0.25044,0 -0.37566,0zM162.22176,272.20117c-0.53383,0 -1.06766,-0.08238 -1.60149,-0.24714c-0.52724,-0.16476 -0.95233,-0.38225 -1.27526,-0.65246l0.54372,-1.14675c0.19113,0.14499 0.4152,0.27021 0.67223,0.37566c0.25703,0.11204 0.52724,0.19772 0.81063,0.25703c0.28998,0.0659 0.57337,0.09886 0.85017,0.09886c0.52724,0 0.96551,-0.08568 1.31481,-0.25703c0.35589,-0.17135 0.6228,-0.42509 0.80075,-0.7612c0.18453,-0.33612 0.2768,-0.75132 0.2768,-1.24561v-1.44332l0.15817,0.09886c-0.04613,0.29657 -0.20101,0.57996 -0.46463,0.85017c-0.26362,0.27021 -0.59315,0.49099 -0.98858,0.66235c-0.38884,0.17135 -0.78756,0.25703 -1.19618,0.25703c-0.71836,0 -1.35764,-0.16806 -1.91784,-0.50417c-0.5536,-0.33612 -0.99516,-0.79745 -1.32469,-1.38401c-0.32293,-0.59315 -0.4844,-1.26538 -0.4844,-2.01669c0,-0.75791 0.15817,-1.43014 0.47452,-2.01669c0.32293,-0.58656 0.7645,-1.04789 1.32469,-1.38401c0.56019,-0.34271 1.18959,-0.51406 1.88818,-0.51406c0.28339,0 0.5569,0.03625 0.82052,0.10874c0.27021,0.0725 0.52065,0.17465 0.75132,0.30646c0.23067,0.12522 0.43497,0.26362 0.61292,0.4152c0.18453,0.15158 0.33282,0.31305 0.44486,0.4844c0.11863,0.17135 0.19113,0.33612 0.21749,0.49429l-0.31634,0.10874v-1.75966h1.48286v7.06831c0,0.59973 -0.08897,1.13027 -0.26692,1.59161c-0.17794,0.46793 -0.43497,0.86006 -0.77109,1.1764c-0.33612,0.32293 -0.74473,0.56678 -1.22583,0.73155c-0.47452,0.16476 -1.01164,0.24714 -1.61138,0.24714zM162.28108,267.69326c0.46793,0 0.88313,-0.10874 1.24561,-0.32623c0.36248,-0.22408 0.64257,-0.52724 0.84029,-0.90949c0.2043,-0.38225 0.30646,-0.82052 0.30646,-1.31481c0,-0.50088 -0.10215,-0.94244 -0.30646,-1.32469c-0.2043,-0.38884 -0.4877,-0.692 -0.85017,-0.90949c-0.35589,-0.22408 -0.76779,-0.33612 -1.23572,-0.33612c-0.46133,0 -0.86995,0.11204 -1.22583,0.33612c-0.35589,0.22408 -0.63928,0.53053 -0.85017,0.91938c-0.2043,0.38884 -0.30646,0.82711 -0.30646,1.31481c0,0.4877 0.10215,0.92596 0.30646,1.31481c0.2109,0.38225 0.49429,0.68541 0.85017,0.90949c0.35589,0.21749 0.7645,0.32623 1.22583,0.32623zM172.54295,268.90921v-10.03404h4.18167c0.64586,0 1.18628,0.09556 1.62125,0.28669c0.44156,0.19113 0.77439,0.47781 0.99846,0.86006c0.22408,0.37566 0.33612,0.8337 0.33612,1.37412c0,0.54701 -0.15158,1.01164 -0.45474,1.39389c-0.29657,0.38225 -0.71177,0.64587 -1.24561,0.79086v-0.28669c0.44816,0.09227 0.83699,0.26033 1.16652,0.50417c0.33612,0.24385 0.59644,0.54701 0.78097,0.90949c0.19113,0.36248 0.28669,0.77768 0.28669,1.24561c0,0.48111 -0.07579,0.90619 -0.22737,1.27526c-0.14499,0.36248 -0.36577,0.66894 -0.66235,0.91938c-0.28998,0.25044 -0.63928,0.44156 -1.04789,0.57337c-0.40861,0.12522 -0.87653,0.18783 -1.40377,0.18783zM174.09502,267.41646h2.68893c0.39543,0 0.72825,-0.05602 0.99845,-0.16806c0.27021,-0.11863 0.47781,-0.28998 0.6228,-0.51406c0.15158,-0.22408 0.22737,-0.49429 0.22737,-0.81063c0,-0.29657 -0.07909,-0.54701 -0.23726,-0.75132c-0.15817,-0.2109 -0.38225,-0.37236 -0.67223,-0.4844c-0.28338,-0.11204 -0.6195,-0.16806 -1.00834,-0.16806h-2.61973zM174.09502,263.03707h2.55052c0.28339,0 0.53712,-0.05602 0.76119,-0.16806c0.22408,-0.11863 0.40202,-0.2768 0.53383,-0.47452c0.13181,-0.2043 0.19772,-0.43497 0.19772,-0.692c0,-0.43497 -0.14499,-0.7645 -0.43497,-0.98858c-0.28338,-0.23067 -0.69529,-0.346 -1.23571,-0.346h-2.37258zM181.92897,268.90921v-7.52306h1.49275v2.3627l-0.1384,-0.57337c0.10545,-0.36248 0.28339,-0.692 0.53383,-0.98858c0.25044,-0.29657 0.54042,-0.53053 0.86995,-0.70189c0.33612,-0.17135 0.67882,-0.25703 1.02812,-0.25703c0.16476,0 0.31964,0.01648 0.46463,0.04943c0.15158,0.02636 0.27021,0.05602 0.35589,0.08897l-0.38554,1.61138c-0.11863,-0.05273 -0.24714,-0.09556 -0.38554,-0.12851c-0.1384,-0.03295 -0.2735,-0.04943 -0.40532,-0.04943c-0.25703,0 -0.50417,0.05273 -0.74143,0.15817c-0.23067,0.09886 -0.43497,0.23726 -0.61292,0.4152c-0.17794,0.17135 -0.31964,0.37566 -0.42509,0.61292c-0.10545,0.23067 -0.15817,0.4877 -0.15817,0.77109v4.15202zM187.95283,268.90921v-7.52306h1.47298v7.52306zM188.67449,259.72534c-0.31634,0 -0.56349,-0.08238 -0.74143,-0.24714c-0.17135,-0.16476 -0.25703,-0.39543 -0.25703,-0.692c0,-0.2768 0.08897,-0.50088 0.26692,-0.67223c0.17794,-0.17135 0.42179,-0.25703 0.73155,-0.25703c0.30975,0 0.55031,0.08238 0.72166,0.24714c0.17794,0.15817 0.26692,0.38554 0.26692,0.68212c0,0.2768 -0.08897,0.50417 -0.26692,0.68212c-0.17794,0.17135 -0.4185,0.25703 -0.72166,0.25703zM195.06167,272.20117c-0.53383,0 -1.06766,-0.08238 -1.60149,-0.24714c-0.52724,-0.16476 -0.95233,-0.38225 -1.27526,-0.65246l0.54372,-1.14675c0.19113,0.14499 0.4152,0.27021 0.67223,0.37566c0.25703,0.11204 0.52724,0.19772 0.81063,0.25703c0.28998,0.0659 0.57337,0.09886 0.85017,0.09886c0.52724,0 0.96551,-0.08568 1.31481,-0.25703c0.35589,-0.17135 0.6228,-0.42509 0.80075,-0.7612c0.18453,-0.33612 0.2768,-0.75132 0.2768,-1.24561v-1.44332l0.15817,0.09886c-0.04613,0.29657 -0.20101,0.57996 -0.46463,0.85017c-0.26362,0.27021 -0.59315,0.49099 -0.98858,0.66235c-0.38884,0.17135 -0.78756,0.25703 -1.19618,0.25703c-0.71836,0 -1.35764,-0.16806 -1.91784,-0.50417c-0.5536,-0.33612 -0.99516,-0.79745 -1.32469,-1.38401c-0.32293,-0.59315 -0.4844,-1.26538 -0.4844,-2.01669c0,-0.75791 0.15817,-1.43014 0.47452,-2.01669c0.32293,-0.58656 0.7645,-1.04789 1.32469,-1.38401c0.56019,-0.34271 1.18959,-0.51406 1.88818,-0.51406c0.28339,0 0.5569,0.03625 0.82052,0.10874c0.27021,0.0725 0.52065,0.17465 0.75132,0.30646c0.23067,0.12522 0.43497,0.26362 0.61292,0.4152c0.18453,0.15158 0.33282,0.31305 0.44486,0.4844c0.11863,0.17135 0.19113,0.33612 0.21749,0.49429l-0.31634,0.10874v-1.75966h1.48286v7.06831c0,0.59973 -0.08897,1.13027 -0.26692,1.59161c-0.17794,0.46793 -0.43497,0.86006 -0.77109,1.1764c-0.33612,0.32293 -0.74473,0.56678 -1.22583,0.73155c-0.47452,0.16476 -1.01164,0.24714 -1.61138,0.24714zM195.12098,267.69326c0.46793,0 0.88313,-0.10874 1.24561,-0.32623c0.36248,-0.22408 0.64257,-0.52724 0.84029,-0.90949c0.2043,-0.38225 0.30646,-0.82052 0.30646,-1.31481c0,-0.50088 -0.10215,-0.94244 -0.30646,-1.32469c-0.2043,-0.38884 -0.4877,-0.692 -0.85017,-0.90949c-0.35589,-0.22408 -0.76779,-0.33612 -1.23572,-0.33612c-0.46133,0 -0.86995,0.11204 -1.22583,0.33612c-0.35589,0.22408 -0.63928,0.53053 -0.85017,0.91938c-0.2043,0.38884 -0.30646,0.82711 -0.30646,1.31481c0,0.4877 0.10215,0.92596 0.30646,1.31481c0.2109,0.38225 0.49429,0.68541 0.85017,0.90949c0.35589,0.21749 0.7645,0.32623 1.22583,0.32623zM200.99361,268.90921v-10.60742h1.48286v4.62653l-0.25703,0.17794c0.09227,-0.33612 0.2768,-0.64587 0.5536,-0.92926c0.2768,-0.28339 0.60633,-0.51076 0.98858,-0.68212c0.38225,-0.17794 0.77439,-0.26692 1.1764,-0.26692c0.57337,0 1.05119,0.11204 1.43343,0.33612c0.38225,0.22408 0.66894,0.56678 0.86006,1.02812c0.19113,0.45474 0.28669,1.03141 0.28669,1.73001v4.58699h-1.47298v-4.48813c0,-0.42838 -0.05931,-0.78427 -0.17794,-1.06766c-0.11204,-0.28339 -0.28998,-0.4877 -0.53383,-0.61292c-0.23726,-0.13181 -0.53053,-0.18783 -0.87983,-0.16806c-0.28998,0 -0.5536,0.04613 -0.79086,0.1384c-0.23726,0.09227 -0.44486,0.22078 -0.6228,0.38554c-0.17794,0.15817 -0.31634,0.346 -0.4152,0.56349c-0.09886,0.2109 -0.14829,0.44156 -0.14829,0.692v4.55733h-0.73155c-0.12522,0 -0.25044,0 -0.37566,0c-0.12522,0 -0.25044,0 -0.37566,0zM210.46167,268.90921v-9.45078h1.47298v9.45078zM208.89972,262.81959v-1.43343h4.78471v1.43343zM214.97733,271.47951l-0.5536,-0.66235c0.33612,-0.19113 0.60962,-0.41191 0.82052,-0.66235c0.2109,-0.25044 0.31634,-0.46463 0.31634,-0.64257c0,-0.09886 -0.02307,-0.19442 -0.0692,-0.28669c-0.04613,-0.08568 -0.14829,-0.2109 -0.30646,-0.37566c-0.19113,-0.17794 -0.31634,-0.32953 -0.37566,-0.45474c-0.05273,-0.12522 -0.07909,-0.26033 -0.07909,-0.40532c0,-0.23067 0.07909,-0.4152 0.23726,-0.5536c0.16476,-0.1384 0.37566,-0.2076 0.63269,-0.2076c0.24385,0 0.46133,0.0692 0.65246,0.2076c0.19772,0.1384 0.3493,0.32953 0.45474,0.57337c0.11204,0.24385 0.16806,0.52395 0.16806,0.84029c0,0.28998 -0.04943,0.56678 -0.14829,0.8304c-0.09227,0.27021 -0.22408,0.51736 -0.39543,0.74143c-0.17135,0.23067 -0.37236,0.43827 -0.60303,0.6228c-0.22408,0.18453 -0.47452,0.32953 -0.75132,0.43497zM227.15805,269.04761c-0.70518,0 -1.35764,-0.12851 -1.95738,-0.38554c-0.59973,-0.25703 -1.12039,-0.61621 -1.56195,-1.07755c-0.44156,-0.46133 -0.78427,-1.00505 -1.02812,-1.63115c-0.24385,-0.6261 -0.36577,-1.31151 -0.36577,-2.05624c0,-0.75132 0.12193,-1.44002 0.36577,-2.06612c0.24385,-0.6261 0.58656,-1.16982 1.02812,-1.63115c0.44156,-0.46133 0.96221,-0.82052 1.56195,-1.07755c0.59973,-0.25703 1.25219,-0.38554 1.95738,-0.38554c0.70518,0 1.35435,0.12851 1.94749,0.38554c0.59973,0.25703 1.12039,0.61951 1.56195,1.08743c0.44816,0.46793 0.79416,1.01494 1.038,1.64104c0.24385,0.6261 0.36577,1.30822 0.36577,2.04635c0,0.73155 -0.12193,1.41037 -0.36577,2.03647c-0.24385,0.6261 -0.58985,1.17311 -1.038,1.64104c-0.44156,0.46793 -0.96221,0.8304 -1.56195,1.08743c-0.59315,0.25703 -1.24231,0.38554 -1.94749,0.38554zM227.15805,267.54498c0.4877,0 0.93256,-0.08897 1.33458,-0.26692c0.40861,-0.18453 0.7612,-0.44156 1.05778,-0.77109c0.29657,-0.32953 0.52724,-0.71507 0.692,-1.15663c0.17135,-0.44816 0.25703,-0.93256 0.25703,-1.45321c0,-0.52724 -0.08568,-1.01164 -0.25703,-1.45321c-0.16476,-0.44816 -0.39543,-0.83699 -0.692,-1.16652c-0.29657,-0.32953 -0.64916,-0.58326 -1.05778,-0.7612c-0.40202,-0.18453 -0.84688,-0.2768 -1.33458,-0.2768c-0.4877,0 -0.93585,0.09227 -1.34446,0.2768c-0.40202,0.17794 -0.75461,0.42838 -1.05778,0.75132c-0.30316,0.32293 -0.53713,0.70848 -0.70189,1.15663c-0.15817,0.44156 -0.23726,0.93256 -0.23726,1.47298c0,0.52065 0.07909,1.00835 0.23726,1.46309c0.16476,0.44816 0.39873,0.8337 0.70189,1.15663c0.30316,0.32293 0.65576,0.57667 1.05778,0.7612c0.40861,0.17794 0.85676,0.26692 1.34446,0.26692zM233.79037,268.90921v-7.52306h1.48286v1.54218l-0.25703,0.17794c0.09227,-0.33612 0.2768,-0.64587 0.5536,-0.92926c0.2768,-0.28339 0.60633,-0.51076 0.98858,-0.68212c0.38225,-0.17794 0.77439,-0.26692 1.1764,-0.26692c0.57337,0 1.05119,0.11204 1.43343,0.33612c0.38225,0.22408 0.66894,0.56678 0.86006,1.02812c0.19113,0.45474 0.28669,1.03141 0.28669,1.73001v4.58699h-1.47298v-4.48813c0,-0.42838 -0.05931,-0.78427 -0.17794,-1.06766c-0.11204,-0.28339 -0.28998,-0.4877 -0.53383,-0.61292c-0.23726,-0.13181 -0.53053,-0.18783 -0.87983,-0.16806c-0.28998,0 -0.5536,0.04613 -0.79086,0.1384c-0.23726,0.09227 -0.44486,0.22078 -0.6228,0.38554c-0.17794,0.15817 -0.31634,0.346 -0.4152,0.56349c-0.09886,0.2109 -0.14829,0.44156 -0.14829,0.692v4.55733h-0.73155c-0.12522,0 -0.25044,0 -0.37566,0c-0.12522,0 -0.25044,0 -0.37566,0zM245.83862,269.04761c-0.77768,0 -1.46639,-0.16476 -2.06612,-0.49429c-0.59315,-0.32953 -1.06107,-0.78097 -1.40378,-1.35435c-0.33612,-0.57337 -0.50417,-1.23242 -0.50417,-1.97715c0,-0.59315 0.09556,-1.13027 0.28669,-1.61138c0.19113,-0.4877 0.45474,-0.90949 0.79086,-1.26538c0.34271,-0.36248 0.74802,-0.64257 1.21595,-0.84029c0.47452,-0.19772 0.99187,-0.29657 1.55206,-0.29657c0.4877,0 0.93915,0.09556 1.35435,0.28669c0.42179,0.18453 0.78756,0.44156 1.09732,0.77109c0.30975,0.32293 0.54701,0.70518 0.71177,1.14675c0.17135,0.44156 0.25373,0.92596 0.24714,1.45321l-0.01977,0.63269h-6.14894l-0.32623,-1.1764h5.19991l-0.21749,0.24714v-0.346c-0.02636,-0.31634 -0.13181,-0.59644 -0.31634,-0.84029c-0.17794,-0.25044 -0.40532,-0.44816 -0.68212,-0.59315c-0.2768,-0.14499 -0.57667,-0.21749 -0.8996,-0.21749c-0.52065,0 -0.95892,0.09886 -1.31481,0.29657c-0.3493,0.19772 -0.61621,0.4844 -0.80075,0.86006c-0.17794,0.37566 -0.26692,0.84029 -0.26692,1.39389c0,0.52724 0.10874,0.98528 0.32623,1.37412c0.22408,0.38225 0.53383,0.67882 0.92926,0.88972c0.40202,0.2109 0.86665,0.31634 1.39389,0.31634c0.37566,0 0.72166,-0.05931 1.038,-0.17794c0.32293,-0.12522 0.66894,-0.35259 1.038,-0.68212l0.75132,1.04789c-0.23067,0.23067 -0.51076,0.43168 -0.84029,0.60303c-0.32953,0.17135 -0.67882,0.30646 -1.04789,0.40532c-0.36907,0.09886 -0.72825,0.14829 -1.07755,0.14829zM259.59659,269.04761c-0.72496,0 -1.40378,-0.12851 -2.03647,-0.38554c-0.63269,-0.26362 -1.18959,-0.62939 -1.67069,-1.09732c-0.47452,-0.46793 -0.84359,-1.01494 -1.1072,-1.64104c-0.25703,-0.6261 -0.38554,-1.30162 -0.38554,-2.02658c0,-0.71836 0.12851,-1.3873 0.38554,-2.00681c0.26362,-0.6261 0.63269,-1.16982 1.1072,-1.63115c0.47452,-0.46133 1.02482,-0.82052 1.65092,-1.07755c0.63269,-0.26362 1.31151,-0.39543 2.03647,-0.39543c0.50747,0 1.00176,0.0725 1.48286,0.21749c0.4877,0.14499 0.92596,0.346 1.31481,0.60303c0.39543,0.25703 0.71507,0.5536 0.95892,0.88972l-0.99846,1.04789c-0.28998,-0.2768 -0.58656,-0.50417 -0.88972,-0.68212c-0.29657,-0.18453 -0.60303,-0.32293 -0.91938,-0.4152c-0.31634,-0.09886 -0.63269,-0.14829 -0.94903,-0.14829c-0.51406,0 -0.98858,0.09227 -1.42355,0.2768c-0.43497,0.17794 -0.81722,0.42838 -1.14675,0.75132c-0.32953,0.32293 -0.58656,0.70189 -0.77109,1.13686c-0.17794,0.43497 -0.26692,0.91279 -0.26692,1.43343c0,0.49429 0.09556,0.96551 0.28669,1.41366c0.19113,0.44156 0.45474,0.8304 0.79086,1.16652c0.34271,0.32953 0.73484,0.58985 1.1764,0.78097c0.44816,0.19113 0.91938,0.28669 1.41366,0.28669c0.37566,0 0.72825,-0.05273 1.05778,-0.15817c0.33612,-0.11204 0.63269,-0.26692 0.88972,-0.46463c0.26362,-0.2043 0.46463,-0.43827 0.60303,-0.70189c0.14499,-0.26362 0.21749,-0.54372 0.21749,-0.84029v-0.28669l0.21749,0.2076h-3.06458v-1.54218h4.4387c0.01977,0.10545 0.03295,0.2109 0.03954,0.31634c0.01318,0.09886 0.01977,0.19442 0.01977,0.28669c0.00659,0.08568 0.00989,0.17135 0.00989,0.25703c0,0.66564 -0.11533,1.26867 -0.346,1.80909c-0.22408,0.53383 -0.54042,0.99846 -0.94903,1.39389c-0.40861,0.38884 -0.88313,0.692 -1.42355,0.90949c-0.53383,0.2109 -1.11709,0.31634 -1.74978,0.31634zM268.60941,269.04761c-0.61951,0 -1.18629,-0.17135 -1.70035,-0.51406c-0.50747,-0.34271 -0.91608,-0.81063 -1.22583,-1.40378c-0.30316,-0.59315 -0.45474,-1.26208 -0.45474,-2.00681c0,-0.75132 0.15488,-1.42025 0.46463,-2.00681c0.30975,-0.59315 0.72825,-1.05448 1.25549,-1.38401c0.53383,-0.33612 1.13027,-0.50417 1.78932,-0.50417c0.39543,0 0.75461,0.05931 1.07755,0.17794c0.32293,0.11204 0.60633,0.27021 0.85017,0.47452c0.24385,0.2043 0.44486,0.44156 0.60303,0.71177c0.15817,0.26362 0.25703,0.55031 0.29657,0.86006l-0.32623,-0.11863v-1.94749h1.48286v7.52306h-1.48286v-1.78932l0.33612,-0.09886c-0.05273,0.25703 -0.16806,0.50747 -0.346,0.75132c-0.17794,0.24385 -0.40532,0.46133 -0.68212,0.65246c-0.27021,0.19113 -0.57008,0.34271 -0.8996,0.45474c-0.32953,0.11204 -0.67553,0.16806 -1.038,0.16806zM268.99495,267.69326c0.45474,0 0.85347,-0.10874 1.19618,-0.32623c0.34271,-0.22408 0.60962,-0.52724 0.80075,-0.90949c0.19772,-0.38884 0.29657,-0.8337 0.29657,-1.33458c0,-0.4877 -0.09886,-0.92267 -0.29657,-1.30492c-0.19113,-0.38225 -0.45804,-0.68212 -0.80075,-0.8996c-0.34271,-0.21749 -0.74143,-0.32623 -1.19618,-0.32623c-0.43497,0 -0.82381,0.10874 -1.16652,0.32623c-0.33612,0.21749 -0.60303,0.51736 -0.80075,0.8996c-0.19772,0.38225 -0.29657,0.81722 -0.29657,1.30492c0,0.50088 0.09886,0.94574 0.29657,1.33458c0.19772,0.38225 0.46463,0.68541 0.80075,0.90949c0.34271,0.21749 0.73155,0.32623 1.16652,0.32623zM274.75684,268.90921v-7.52306h1.49275v1.60149l-0.26692,0.17794c0.0725,-0.25044 0.19113,-0.49099 0.35589,-0.72166c0.17135,-0.23067 0.37896,-0.43168 0.6228,-0.60303c0.24385,-0.17794 0.50747,-0.31964 0.79086,-0.42509c0.28339,-0.10545 0.57337,-0.15817 0.86995,-0.15817c0.42838,0 0.80404,0.0725 1.12698,0.21749c0.32293,0.1384 0.58985,0.35259 0.80075,0.64257c0.2109,0.28339 0.36577,0.63928 0.46463,1.06766l-0.23726,-0.04943l0.10874,-0.24714c0.10545,-0.21749 0.25044,-0.42509 0.43497,-0.6228c0.18453,-0.19772 0.39543,-0.37236 0.63269,-0.52395c0.24385,-0.15158 0.49758,-0.27021 0.7612,-0.35589c0.27021,-0.08568 0.53383,-0.12851 0.79086,-0.12851c0.56678,0 1.03141,0.11533 1.39389,0.346c0.36907,0.22408 0.64587,0.57008 0.8304,1.038c0.19113,0.46793 0.28669,1.05119 0.28669,1.74978v4.51779h-1.49275v-4.42882c0,-0.42838 -0.05602,-0.77768 -0.16806,-1.04789c-0.10545,-0.2768 -0.27021,-0.48111 -0.49429,-0.61292c-0.21749,-0.1384 -0.49758,-0.2076 -0.84029,-0.2076c-0.27021,0 -0.52395,0.04613 -0.7612,0.1384c-0.23067,0.09227 -0.43168,0.22078 -0.60303,0.38554c-0.17135,0.15817 -0.30646,0.346 -0.40532,0.56349c-0.09227,0.21749 -0.1384,0.45474 -0.1384,0.71177v4.49802h-1.49275v-4.45848c0,-0.38884 -0.05931,-0.71836 -0.17794,-0.98858c-0.11204,-0.2768 -0.2768,-0.4877 -0.49429,-0.63269c-0.21749,-0.14499 -0.4844,-0.21749 -0.80075,-0.21749c-0.27021,0 -0.52065,0.04613 -0.75132,0.1384c-0.23067,0.09227 -0.43168,0.21749 -0.60303,0.37566c-0.17135,0.15817 -0.30646,0.346 -0.40532,0.56349c-0.09227,0.2109 -0.1384,0.44156 -0.1384,0.692v4.52768zM291.50775,269.04761c-0.77768,0 -1.46639,-0.16476 -2.06612,-0.49429c-0.59315,-0.32953 -1.06107,-0.78097 -1.40378,-1.35435c-0.33612,-0.57337 -0.50417,-1.23242 -0.50417,-1.97715c0,-0.59315 0.09556,-1.13027 0.28669,-1.61138c0.19113,-0.4877 0.45474,-0.90949 0.79086,-1.26538c0.34271,-0.36248 0.74802,-0.64257 1.21595,-0.84029c0.47452,-0.19772 0.99187,-0.29657 1.55206,-0.29657c0.4877,0 0.93915,0.09556 1.35435,0.28669c0.42179,0.18453 0.78756,0.44156 1.09732,0.77109c0.30975,0.32293 0.54701,0.70518 0.71177,1.14675c0.17135,0.44156 0.25373,0.92596 0.24714,1.45321l-0.01977,0.63269h-6.14894l-0.32623,-1.1764h5.19991l-0.21749,0.24714v-0.346c-0.02636,-0.31634 -0.13181,-0.59644 -0.31634,-0.84029c-0.17794,-0.25044 -0.40532,-0.44816 -0.68212,-0.59315c-0.2768,-0.14499 -0.57667,-0.21749 -0.8996,-0.21749c-0.52065,0 -0.95892,0.09886 -1.31481,0.29657c-0.3493,0.19772 -0.61621,0.4844 -0.80075,0.86006c-0.17794,0.37566 -0.26692,0.84029 -0.26692,1.39389c0,0.52724 0.10874,0.98528 0.32623,1.37412c0.22408,0.38225 0.53383,0.67882 0.92926,0.88972c0.40202,0.2109 0.86665,0.31634 1.39389,0.31634c0.37566,0 0.72166,-0.05931 1.038,-0.17794c0.32293,-0.12522 0.66894,-0.35259 1.038,-0.68212l0.75132,1.04789c-0.23067,0.23067 -0.51076,0.43168 -0.84029,0.60303c-0.32953,0.17135 -0.67882,0.30646 -1.04789,0.40532c-0.36907,0.09886 -0.72825,0.14829 -1.07755,0.14829zM303.29849,269.04761c-0.61951,0 -1.18629,-0.17135 -1.70035,-0.51406c-0.50747,-0.34271 -0.91608,-0.81063 -1.22583,-1.40378c-0.30316,-0.59315 -0.45474,-1.26208 -0.45474,-2.00681c0,-0.75132 0.15488,-1.42025 0.46463,-2.00681c0.30975,-0.59315 0.72825,-1.05448 1.25549,-1.38401c0.53383,-0.33612 1.13027,-0.50417 1.78932,-0.50417c0.39543,0 0.75461,0.05931 1.07755,0.17794c0.32293,0.11204 0.60633,0.27021 0.85017,0.47452c0.24385,0.2043 0.44486,0.44156 0.60303,0.71177c0.15817,0.26362 0.25703,0.55031 0.29657,0.86006l-0.32623,-0.11863v-1.94749h1.48286v7.52306h-1.48286v-1.78932l0.33612,-0.09886c-0.05273,0.25703 -0.16806,0.50747 -0.346,0.75132c-0.17794,0.24385 -0.40532,0.46133 -0.68212,0.65246c-0.27021,0.19113 -0.57008,0.34271 -0.8996,0.45474c-0.32953,0.11204 -0.67553,0.16806 -1.038,0.16806zM303.68403,267.69326c0.45474,0 0.85347,-0.10874 1.19618,-0.32623c0.34271,-0.22408 0.60962,-0.52724 0.80075,-0.90949c0.19772,-0.38884 0.29657,-0.8337 0.29657,-1.33458c0,-0.4877 -0.09886,-0.92267 -0.29657,-1.30492c-0.19113,-0.38225 -0.45804,-0.68212 -0.80075,-0.8996c-0.34271,-0.21749 -0.74143,-0.32623 -1.19618,-0.32623c-0.43497,0 -0.82381,0.10874 -1.16652,0.32623c-0.33612,0.21749 -0.60303,0.51736 -0.80075,0.8996c-0.19772,0.38225 -0.29657,0.81722 -0.29657,1.30492c0,0.50088 0.09886,0.94574 0.29657,1.33458c0.19772,0.38225 0.46463,0.68541 0.80075,0.90949c0.34271,0.21749 0.73155,0.32623 1.16652,0.32623zM310.41472,268.90921v-9.45078h1.47298v9.45078zM308.85278,262.81959v-1.43343h4.78471v1.43343zM321.89008,269.04761c-0.61951,0 -1.18629,-0.17135 -1.70035,-0.51406c-0.50747,-0.34271 -0.91608,-0.81063 -1.22583,-1.40378c-0.30316,-0.59315 -0.45474,-1.26208 -0.45474,-2.00681c0,-0.75132 0.15488,-1.42025 0.46463,-2.00681c0.30975,-0.59315 0.72825,-1.05448 1.25549,-1.38401c0.53383,-0.33612 1.13027,-0.50417 1.78932,-0.50417c0.39543,0 0.75461,0.05931 1.07755,0.17794c0.32293,0.11204 0.60633,0.27021 0.85017,0.47452c0.24385,0.2043 0.44486,0.44156 0.60303,0.71177c0.15817,0.26362 0.25703,0.55031 0.29657,0.86006l-0.32623,-0.11863v-1.94749h1.48286v7.52306h-1.48286v-1.78932l0.33612,-0.09886c-0.05273,0.25703 -0.16806,0.50747 -0.346,0.75132c-0.17794,0.24385 -0.40532,0.46133 -0.68212,0.65246c-0.27021,0.19113 -0.57008,0.34271 -0.8996,0.45474c-0.32953,0.11204 -0.67553,0.16806 -1.038,0.16806zM322.27562,267.69326c0.45474,0 0.85347,-0.10874 1.19618,-0.32623c0.34271,-0.22408 0.60962,-0.52724 0.80075,-0.90949c0.19772,-0.38884 0.29657,-0.8337 0.29657,-1.33458c0,-0.4877 -0.09886,-0.92267 -0.29657,-1.30492c-0.19113,-0.38225 -0.45804,-0.68212 -0.80075,-0.8996c-0.34271,-0.21749 -0.74143,-0.32623 -1.19618,-0.32623c-0.43497,0 -0.82381,0.10874 -1.16652,0.32623c-0.33612,0.21749 -0.60303,0.51736 -0.80075,0.8996c-0.19772,0.38225 -0.29657,0.81722 -0.29657,1.30492c0,0.50088 0.09886,0.94574 0.29657,1.33458c0.19772,0.38225 0.46463,0.68541 0.80075,0.90949c0.34271,0.21749 0.73155,0.32623 1.16652,0.32623zM334.36439,268.90921v-8.54129h-2.80755v-1.49275h7.24626v1.49275h-2.88664v8.54129zM340.58451,268.90921v-7.52306h1.47298v7.52306zM341.30617,259.72534c-0.31634,0 -0.56349,-0.08238 -0.74143,-0.24714c-0.17135,-0.16476 -0.25703,-0.39543 -0.25703,-0.692c0,-0.2768 0.08897,-0.50088 0.26692,-0.67223c0.17794,-0.17135 0.42179,-0.25703 0.73155,-0.25703c0.30975,0 0.55031,0.08238 0.72166,0.24714c0.17794,0.15817 0.26692,0.38554 0.26692,0.68212c0,0.2768 -0.08897,0.50417 -0.26692,0.68212c-0.17794,0.17135 -0.4185,0.25703 -0.72166,0.25703zM344.29263,268.90921v-7.52306h1.49275v1.60149l-0.26692,0.17794c0.0725,-0.25044 0.19113,-0.49099 0.35589,-0.72166c0.17135,-0.23067 0.37896,-0.43168 0.6228,-0.60303c0.24385,-0.17794 0.50747,-0.31964 0.79086,-0.42509c0.28339,-0.10545 0.57337,-0.15817 0.86995,-0.15817c0.42838,0 0.80404,0.0725 1.12698,0.21749c0.32293,0.1384 0.58985,0.35259 0.80075,0.64257c0.2109,0.28339 0.36577,0.63928 0.46463,1.06766l-0.23726,-0.04943l0.10874,-0.24714c0.10545,-0.21749 0.25044,-0.42509 0.43497,-0.6228c0.18453,-0.19772 0.39543,-0.37236 0.63269,-0.52395c0.24385,-0.15158 0.49758,-0.27021 0.7612,-0.35589c0.27021,-0.08568 0.53383,-0.12851 0.79086,-0.12851c0.56678,0 1.03141,0.11533 1.39389,0.346c0.36907,0.22408 0.64587,0.57008 0.8304,1.038c0.19113,0.46793 0.28669,1.05119 0.28669,1.74978v4.51779h-1.49275v-4.42882c0,-0.42838 -0.05602,-0.77768 -0.16806,-1.04789c-0.10545,-0.2768 -0.27021,-0.48111 -0.49429,-0.61292c-0.21749,-0.1384 -0.49758,-0.2076 -0.84029,-0.2076c-0.27021,0 -0.52395,0.04613 -0.7612,0.1384c-0.23067,0.09227 -0.43168,0.22078 -0.60303,0.38554c-0.17135,0.15817 -0.30646,0.346 -0.40532,0.56349c-0.09227,0.21749 -0.1384,0.45474 -0.1384,0.71177v4.49802h-1.49275v-4.45848c0,-0.38884 -0.05931,-0.71836 -0.17794,-0.98858c-0.11204,-0.2768 -0.2768,-0.4877 -0.49429,-0.63269c-0.21749,-0.14499 -0.4844,-0.21749 -0.80075,-0.21749c-0.27021,0 -0.52065,0.04613 -0.75132,0.1384c-0.23067,0.09227 -0.43168,0.21749 -0.60303,0.37566c-0.17135,0.15817 -0.30646,0.346 -0.40532,0.56349c-0.09227,0.2109 -0.1384,0.44156 -0.1384,0.692v4.52768zM361.04354,269.04761c-0.77768,0 -1.46639,-0.16476 -2.06612,-0.49429c-0.59315,-0.32953 -1.06107,-0.78097 -1.40378,-1.35435c-0.33612,-0.57337 -0.50417,-1.23242 -0.50417,-1.97715c0,-0.59315 0.09556,-1.13027 0.28669,-1.61138c0.19113,-0.4877 0.45474,-0.90949 0.79086,-1.26538c0.34271,-0.36248 0.74802,-0.64257 1.21595,-0.84029c0.47452,-0.19772 0.99187,-0.29657 1.55206,-0.29657c0.4877,0 0.93915,0.09556 1.35435,0.28669c0.42179,0.18453 0.78756,0.44156 1.09732,0.77109c0.30975,0.32293 0.54701,0.70518 0.71177,1.14675c0.17135,0.44156 0.25373,0.92596 0.24714,1.45321l-0.01977,0.63269h-6.14894l-0.32623,-1.1764h5.19991l-0.21749,0.24714v-0.346c-0.02636,-0.31634 -0.13181,-0.59644 -0.31634,-0.84029c-0.17794,-0.25044 -0.40532,-0.44816 -0.68212,-0.59315c-0.2768,-0.14499 -0.57667,-0.21749 -0.8996,-0.21749c-0.52065,0 -0.95892,0.09886 -1.31481,0.29657c-0.3493,0.19772 -0.61621,0.4844 -0.80075,0.86006c-0.17794,0.37566 -0.26692,0.84029 -0.26692,1.39389c0,0.52724 0.10874,0.98528 0.32623,1.37412c0.22408,0.38225 0.53383,0.67882 0.92926,0.88972c0.40202,0.2109 0.86665,0.31634 1.39389,0.31634c0.37566,0 0.72166,-0.05931 1.038,-0.17794c0.32293,-0.12522 0.66894,-0.35259 1.038,-0.68212l0.75132,1.04789c-0.23067,0.23067 -0.51076,0.43168 -0.84029,0.60303c-0.32953,0.17135 -0.67882,0.30646 -1.04789,0.40532c-0.36907,0.09886 -0.72825,0.14829 -1.07755,0.14829zM366.52716,269.06738c-0.31634,0 -0.56019,-0.09227 -0.73155,-0.2768c-0.17135,-0.19113 -0.25703,-0.45804 -0.25703,-0.80075c0,-0.31634 0.08897,-0.57337 0.26692,-0.77109c0.18453,-0.2043 0.42509,-0.30646 0.72166,-0.30646c0.31634,0 0.56019,0.09556 0.73155,0.28669c0.17135,0.18453 0.25703,0.44816 0.25703,0.79086c0,0.31634 -0.09227,0.57667 -0.2768,0.78097c-0.17794,0.19772 -0.4152,0.29657 -0.71177,0.29657z" fill="#fefeff" stroke="none" stroke-width="1" stroke-linecap="square"/></g></g></svg>