<svg version="1.1" xmlns="http://www.w3.org/2000/svg" xmlns:xlink="http://www.w3.org/1999/xlink" width="136.91057" height="121.18916" viewBox="0,0,136.91057,121.18916"><defs><linearGradient x1="290.02759" y1="174.90477" x2="189.19735" y2="122.55737" gradientUnits="userSpaceOnUse" id="color-1"><stop offset="0" stop-color="#00b5ff"/><stop offset="1" stop-color="#00e6ff"/></linearGradient><linearGradient x1="294.59821" y1="113.6333" x2="315.04534" y2="114.72237" gradientUnits="userSpaceOnUse" id="color-2"><stop offset="0" stop-color="#00b5ff"/><stop offset="1" stop-color="#00e6ff"/></linearGradient><linearGradient x1="183.43283" y1="197.1671" x2="203.87995" y2="198.25616" gradientUnits="userSpaceOnUse" id="color-3"><stop offset="0" stop-color="#00b5ff"/><stop offset="1" stop-color="#00e6ff"/></linearGradient></defs><g transform="translate(-178.14907,-87.79884)"><g data-paper-data="{&quot;isPaintingLayer&quot;:true}" fill-rule="nonzero" stroke-linejoin="miter" stroke-miterlimit="10" stroke-dasharray="" stroke-dashoffset="0" style="mix-blend-mode: normal"><path d="M201.04144,130.0114c8.39961,-4.36149 10.16066,-5.75933 15.43744,-10.06644c5.27678,-4.30708 6.21967,-5.1163 12.1753,-12.47206c7.00937,-8.65727 12.57789,-19.92951 17.53578,-19.66965c4.45255,0.29193 6.39294,10.71204 10.84183,19.98751c4.31789,9.00241 4.54933,10.06077 9.93455,17.14337c5.38523,7.08259 7.68868,10.46329 15.64372,16.49691c8.19636,6.21667 18.15696,8.99523 17.48737,13.81756c-0.66192,4.1013 -13.73816,8.42505 -23.62401,13.55821c-8.39964,4.36149 -9.32489,4.49381 -14.97488,8.57974c-5.64996,4.08592 -6.04811,4.6174 -12.0037,11.97317c-7.00937,8.6573 -13.78863,19.79933 -17.93938,19.62629c-4.40918,-0.69549 -5.98938,-10.66861 -10.43825,-19.94411c-4.31789,-9.00237 -4.82837,-10.43364 -9.97798,-16.73982c-5.14962,-6.30615 -7.51571,-8.39087 -15.47075,-14.42449c-8.19636,-6.21667 -18.15697,-8.99523 -17.48738,-13.81756c0.66189,-4.10129 12.97437,-8.91543 22.86023,-14.04861z" data-paper-data="{&quot;index&quot;:null}" fill="url(#color-1)" stroke="#000000" stroke-width="0" stroke-linecap="round"/><path d="M233.56506,141.57919c-3.73782,-0.19909 -3.53873,-3.93691 -3.53873,-3.93691l0.20706,-3.78c-0.19523,-3.39476 -0.13963,-6.80533 0.03781,-10.20107c0,0 0.19909,-3.73782 3.93691,-3.53874c3.73782,0.19909 3.53874,3.93691 3.53874,3.93691c-0.17704,3.25756 -0.21454,6.53008 -0.02723,9.78706l-0.21765,4.19402c0,0 -0.19909,3.73782 -3.93691,3.53874z" fill="#005d82" stroke="none" stroke-width="9" stroke-linecap="butt"/><path d="M250.25409,142.15263c-3.73782,-0.19909 -3.53874,-3.93691 -3.53874,-3.93691l0.20708,-3.77999c-0.19523,-3.39478 -0.13963,-6.80533 0.0378,-10.20108c0,0 0.19909,-3.73782 3.93691,-3.53874c3.73782,0.19909 3.53874,3.93691 3.53874,3.93691c-0.17706,3.25756 -0.21454,6.53008 -0.02723,9.78706l-0.21764,4.19402c0,0 -0.19909,3.73782 -3.93691,3.53874z" fill="#005d82" stroke="none" stroke-width="9" stroke-linecap="butt"/><path d="M249.87029,151.34467c0,0 -5.29206,2.58812 -9.63052,2.38307c-4.21881,-0.1994 -9.07493,-3.00424 -9.07493,-3.00424" fill="none" stroke="#005d82" stroke-width="5" stroke-linecap="round"/><path d="M315.04534,114.72237c-0.29611,5.55946 -5.1134,9.82249 -10.75971,9.52175c-5.64633,-0.30074 -9.98351,-5.05136 -9.6874,-10.61081c0.29611,-5.55944 5.1134,-9.82247 10.75971,-9.52174c5.64632,0.30074 9.98351,5.05137 9.6874,10.6108z" fill="url(#color-2)" stroke="none" stroke-width="9" stroke-linecap="butt"/><path d="M203.87995,198.25616c-0.29611,5.55946 -5.1134,9.82247 -10.75972,9.52174c-5.64632,-0.30074 -9.98351,-5.05137 -9.6874,-10.6108c0.29611,-5.55944 5.1134,-9.82248 10.75971,-9.52175c5.64632,0.30074 9.98352,5.05137 9.68741,10.61082z" fill="url(#color-3)" stroke="none" stroke-width="9" stroke-linecap="butt"/></g></g></svg>
